<?xml version="1.0" encoding="UTF-8"?><svg id="a" xmlns="http://www.w3.org/2000/svg" viewBox="0 0 48.43 39.69"><defs><style>.b{fill:#fff;}</style></defs><path class="b" d="M47.07,1.16s-.68,3.06-4.2,5.44c0,0,3.86-.68,5.56-1.59,0,0-1.25,2.72-4.99,5.22,0,0,1.47,16.33-13.84,25.75,0,0-13.38,8.85-29.6-.79,0,0,9.53,1.25,14.4-4.08,0,0-6.69-.45-8.96-6.92,0,0,3.52,.68,4.42-.23,0,0-7.37-1.13-8.05-9.75,0,0,2.04,1.36,4.65,1.36,0,0-7.37-5.67-3.18-13.5,0,0,6.47,9.75,20.93,10.55,0,0-2.21-11.46,8.55-12.56,0,0,5.91-.83,8.07,3.48,0,0,4.31-1.02,6.24-2.38Z"/></svg>